<svg width="60" height="60" viewBox="0 0 60 60" fill="none" xmlns="http://www.w3.org/2000/svg">
<g clip-path="url(#clip0_1593_2172)">
<path fill-rule="evenodd" clip-rule="evenodd" d="M12.1732 17.3398C12.1732 8.38032 19.4364 1.11719 28.3958 1.11719C37.3554 1.11719 44.6186 8.38032 44.6186 17.3398V20.482C44.6186 20.6704 44.5938 20.8532 44.5475 21.0271C48.5992 22.5159 51.7574 25.7846 53.0973 29.9085C53.7879 32.0335 53.7879 34.6593 53.7879 39.9104C53.7879 45.1617 53.7879 47.7875 53.0973 49.9122C51.7018 54.2069 48.3349 57.5738 44.0402 58.9693C41.9155 59.6597 39.2897 59.6596 34.0386 59.6596H22.7531C17.5019 59.6596 14.8763 59.6597 12.7514 58.9693C8.45676 57.5738 5.08973 54.2069 3.69434 49.9122C3.00391 47.7875 3.00391 45.1617 3.00391 39.9104C3.00391 34.6593 3.00391 32.0335 3.69434 29.9085C5.03431 25.7846 8.1924 22.5159 12.2441 21.0271C12.1979 20.8532 12.1732 20.6704 12.1732 20.482V17.3398ZM16.4052 20.2575C18.0126 20.1611 20.0298 20.1611 22.7532 20.1611H34.0386C36.7618 20.1611 38.779 20.1611 40.3866 20.2575V17.3398C40.3866 10.7176 35.0182 5.34917 28.3958 5.34917C21.7736 5.34917 16.4052 10.7176 16.4052 17.3398V20.2575ZM28.3958 32.1517C29.5645 32.1517 30.5118 33.0991 30.5118 34.2677V45.553C30.5118 46.7216 29.5645 47.669 28.3958 47.669C27.2272 47.669 26.2799 46.7216 26.2799 45.553V34.2677C26.2799 33.0991 27.2272 32.1517 28.3958 32.1517Z" fill="#11172B"/>
</g>
<defs>
<clipPath id="clip0_1593_2172">
<rect width="59.2479" height="59.2479" fill="white" transform="translate(0 0.484375)"/>
</clipPath>
</defs>
</svg>
