<svg width="28" height="27" viewBox="0 0 28 27" fill="none" xmlns="http://www.w3.org/2000/svg">
<path d="M8.77659 15.6311L9.30393 16.5466C9.35573 16.6349 9.42442 16.7122 9.50609 16.7741C9.58777 16.8359 9.68082 16.881 9.77993 16.9069C9.87905 16.9327 9.98228 16.9388 10.0837 16.9248C10.1852 16.9107 10.2829 16.8768 10.3713 16.825C10.907 17.2995 11.5366 17.656 12.2191 17.8712C12.2153 17.9756 12.2326 18.0796 12.2699 18.1771C12.3072 18.2747 12.3637 18.3637 12.4362 18.4389C12.5086 18.5141 12.5955 18.5739 12.6915 18.6149C12.7876 18.6558 12.8909 18.6769 12.9953 18.677H14.05C14.2552 18.6771 14.452 18.5959 14.5975 18.4512C14.743 18.3066 14.8252 18.1102 14.8263 17.905V17.8713C15.5079 17.6502 16.1388 17.296 16.6825 16.8292C16.7705 16.8803 16.8678 16.9136 16.9687 16.927C17.0697 16.9405 17.1723 16.9339 17.2706 16.9077C17.369 16.8814 17.4612 16.836 17.542 16.774C17.6228 16.7121 17.6906 16.6347 17.7414 16.5465C17.9587 16.0954 18.5017 15.4944 18.3489 15.0447C18.3213 14.9414 18.2725 14.8449 18.2057 14.7614C18.1389 14.6779 18.0555 14.6092 17.9608 14.5595C18.1233 13.8629 18.1233 13.1383 17.9608 12.4417C18.053 12.3932 18.1344 12.3266 18.2002 12.2458C18.266 12.165 18.3147 12.0718 18.3435 11.9717C18.3723 11.8715 18.3805 11.7666 18.3676 11.6633C18.3548 11.5599 18.3212 11.4602 18.2688 11.3701L17.7414 10.4547C17.6889 10.3647 17.6189 10.2862 17.5354 10.2239C17.452 10.1616 17.3569 10.1167 17.2557 10.0919C17.1545 10.0671 17.0494 10.0629 16.9466 10.0795C16.8438 10.0962 16.7454 10.1334 16.6572 10.1889C16.1221 9.71138 15.5006 9.34053 14.8262 9.09634C14.8252 8.89117 14.743 8.69474 14.5975 8.55004C14.4521 8.40535 14.2552 8.32415 14.05 8.32422H12.9953C12.8909 8.32433 12.7876 8.34547 12.6915 8.38638C12.5955 8.42729 12.5086 8.48713 12.4362 8.56233C12.3637 8.63753 12.3072 8.72655 12.2699 8.82408C12.2326 8.92161 12.2153 9.02565 12.2191 9.13C11.5387 9.35373 10.9082 9.70766 10.3629 10.1721C10.2749 10.1209 10.1776 10.0877 10.0767 10.0742C9.97573 10.0607 9.87313 10.0673 9.77475 10.0935C9.67637 10.1198 9.58414 10.1652 9.50335 10.2272C9.42255 10.2892 9.35479 10.3665 9.30393 10.4547L8.77659 11.3702C8.72543 11.4582 8.69216 11.5555 8.67868 11.6564C8.6652 11.7573 8.67178 11.8599 8.69804 11.9583C8.7243 12.0567 8.76973 12.1489 8.83171 12.2297C8.8937 12.3105 8.97102 12.3782 9.05925 12.4291C9.06594 12.7383 8.93202 13.145 8.96227 13.5006C8.93217 13.8559 9.06504 14.2634 9.0593 14.5722C8.88163 14.6753 8.75209 14.8447 8.6991 15.0432C8.6461 15.2417 8.67397 15.4531 8.77659 15.6311ZM13.5227 11.1803C16.5888 11.2794 16.5881 15.7223 13.5227 15.8209C10.4566 15.7219 10.4573 11.2789 13.5227 11.1803Z" fill="#4285F4"/>
<path d="M13.1016 5.06251V6.75001C13.1035 6.86059 13.1489 6.96598 13.2278 7.04348C13.3067 7.12098 13.4128 7.16441 13.5234 7.16441C13.634 7.16441 13.7402 7.12098 13.8191 7.04348C13.898 6.96598 13.9433 6.86059 13.9453 6.75001V5.48439H18.6113C18.8644 7.93126 21.8808 9.30236 23.8889 7.83001C26.5678 5.99486 25.2516 1.67907 21.9609 1.68751C21.1395 1.69004 20.3469 1.99092 19.7307 2.53415C19.1146 3.07739 18.7167 3.82598 18.6113 4.64064H13.5234C13.4117 4.64097 13.3045 4.68553 13.2255 4.76457C13.1465 4.84361 13.1019 4.95073 13.1016 5.06251Z" fill="#4285F4"/>
<path d="M3.15603 7.82982C3.60461 8.14091 4.12093 8.3405 4.66212 8.41201V13.4998C4.66246 13.6116 4.70701 13.7187 4.78605 13.7978C4.8651 13.8768 4.97221 13.9214 5.084 13.9217H6.7715C6.88208 13.9197 6.98746 13.8744 7.06496 13.7955C7.14247 13.7166 7.18589 13.6104 7.18589 13.4998C7.18589 13.3892 7.14247 13.283 7.06496 13.2041C6.98746 13.1252 6.88208 13.0799 6.7715 13.0779H5.50587V8.41201C7.95275 8.15888 9.32384 5.14248 7.8515 3.13435C6.01634 0.455447 1.70056 1.7717 1.709 5.06232C1.70961 5.60603 1.84148 6.14155 2.09341 6.62338C2.34534 7.1052 2.70987 7.51907 3.15603 7.82982Z" fill="#4285F4"/>
<path d="M13.9451 21.9369V20.2494C13.9432 20.1388 13.8978 20.0334 13.8189 19.9559C13.74 19.8784 13.6339 19.835 13.5233 19.835C13.4127 19.835 13.3065 19.8784 13.2276 19.9559C13.1487 20.0334 13.1034 20.1388 13.1014 20.2494V21.515H8.43545C8.18232 19.0682 5.16592 17.6971 3.15779 19.1694C0.478884 21.0046 1.79513 25.3203 5.08576 25.3119C5.90721 25.3094 6.69976 25.0085 7.31595 24.4653C7.93213 23.922 8.32997 23.1734 8.43545 22.3588H13.5233C13.635 22.3584 13.7422 22.3139 13.8212 22.2348C13.9002 22.1558 13.9448 22.0487 13.9451 21.9369Z" fill="#4285F4"/>
<path d="M23.8903 19.17C23.4417 18.8589 22.9254 18.6593 22.3842 18.5878V13.5C22.3838 13.3882 22.3393 13.2811 22.2602 13.2021C22.1812 13.123 22.0741 13.0785 21.9623 13.0781H20.2748C20.1642 13.0801 20.0588 13.1254 19.9813 13.2043C19.9038 13.2832 19.8604 13.3894 19.8604 13.5C19.8604 13.6106 19.9038 13.7168 19.9813 13.7957C20.0588 13.8746 20.1642 13.9199 20.2748 13.9219H21.5404V18.5878C19.0935 18.8409 17.7225 21.8573 19.1948 23.8655C21.03 26.5444 25.3457 25.2281 25.3373 21.9375C25.3367 21.3938 25.2048 20.8583 24.9529 20.3764C24.701 19.8946 24.3364 19.4807 23.8903 19.17Z" fill="#4285F4"/>
<path d="M9.00531 3.50577C10.425 2.86347 11.9654 2.53124 13.5236 2.53124C15.0818 2.53124 16.6222 2.86347 18.0419 3.50577C18.1433 3.24333 18.2735 2.9929 18.43 2.75905C16.8906 2.0537 15.2173 1.68823 13.5241 1.6875C11.8308 1.68677 10.1572 2.05081 8.61719 2.75483C8.74102 2.94422 8.84964 3.14312 8.94203 3.34968C8.96312 3.4003 8.98422 3.45515 9.00531 3.50577Z" fill="#4285F4"/>
<path d="M18.0419 23.4922C16.6222 24.1345 15.0818 24.4667 13.5236 24.4667C11.9654 24.4667 10.425 24.1345 9.00531 23.4922C8.90385 23.7546 8.77368 24.0051 8.61719 24.2389C10.1566 24.9443 11.8298 25.3098 13.5231 25.3105C15.2164 25.3112 16.89 24.9472 18.43 24.2431C18.3062 24.0537 18.1975 23.8548 18.1052 23.6483C18.0841 23.5977 18.063 23.5428 18.0419 23.4922Z" fill="#4285F4"/>
<path d="M2.90076 18.3309C3.09998 18.2073 3.31044 18.1028 3.52935 18.0188C2.88705 16.599 2.55482 15.0587 2.55482 13.5005C2.55482 11.9422 2.88705 10.4019 3.52935 8.98219C3.26544 8.87927 3.01362 8.7477 2.77841 8.58984C2.0775 10.1313 1.71484 11.805 1.71484 13.4984C1.71485 15.1917 2.07751 16.8654 2.77844 18.4069C2.81638 18.3816 2.85857 18.3563 2.90076 18.3309Z" fill="#4285F4"/>
<path d="M24.2624 18.4108C24.9654 16.87 25.3296 15.1963 25.3304 13.5027C25.3311 11.8091 24.9683 10.1351 24.2665 8.59375C24.2286 8.61906 24.1864 8.64437 24.1442 8.66969C23.945 8.79333 23.7345 8.89786 23.5156 8.98188C24.1579 10.4016 24.4902 11.9419 24.4902 13.5002C24.4902 15.0584 24.1579 16.5987 23.5156 18.0184C23.779 18.1197 24.0296 18.2514 24.2624 18.4108Z" fill="#4285F4"/>
</svg>
