<svg width="69" height="68" viewBox="0 0 69 68" fill="none" xmlns="http://www.w3.org/2000/svg">
<path fill-rule="evenodd" clip-rule="evenodd" d="M17.6646 0.302734C8.33585 0.302734 0.773438 7.86515 0.773438 17.1939V50.9762C0.773438 60.305 8.33585 67.8673 17.6646 67.8673H51.4469C60.7757 67.8673 68.3381 60.305 68.3381 50.9762V17.1939C68.3381 7.86515 60.7757 0.302734 51.4469 0.302734H17.6646ZM34.5557 21.8006C27.7712 21.8006 22.2713 27.3005 22.2713 34.085C22.2713 40.8694 27.7712 46.3695 34.5557 46.3695C41.3402 46.3695 46.8402 40.8694 46.8402 34.085C46.8402 27.3005 41.3402 21.8006 34.5557 21.8006ZM16.129 34.085C16.129 23.9082 24.3789 15.6583 34.5557 15.6583C44.7325 15.6583 52.9825 23.9082 52.9825 34.085C52.9825 44.2618 44.7325 52.5118 34.5557 52.5118C24.3789 52.5118 16.129 44.2618 16.129 34.085ZM52.9825 9.51609C49.5901 9.51609 46.8402 12.2661 46.8402 15.6583C46.8402 19.0506 49.5901 21.8006 52.9825 21.8006C56.3748 21.8006 59.1247 19.0506 59.1247 15.6583C59.1247 12.2661 56.3748 9.51609 52.9825 9.51609Z" fill="#011635"/>
</svg>
