<svg width="81" height="80" viewBox="0 0 81 80" fill="none" xmlns="http://www.w3.org/2000/svg">
<path d="M40.5 0C29.8938 0 19.7125 4.21688 12.2188 11.7156C4.71733 19.2174 0.502147 29.3911 0.5 40C0.5 50.6044 4.71875 60.7856 12.2188 68.2844C19.7125 75.7831 29.8938 80 40.5 80C51.1063 80 61.2875 75.7831 68.7812 68.2844C76.2812 60.7856 80.5 50.6044 80.5 40C80.5 29.3956 76.2812 19.2144 68.7812 11.7156C61.2875 4.21688 51.1063 0 40.5 0Z" fill="#011635"/>
<path d="M18.6078 39.5801C30.2703 34.5001 38.0453 31.1509 41.9328 29.5326C53.0453 24.912 55.3515 24.1095 56.8578 24.0823C57.189 24.077 57.9265 24.1588 58.4078 24.5479C58.8078 24.876 58.9203 25.3198 58.9765 25.6313C59.0265 25.9426 59.0953 26.652 59.039 27.2057C58.439 33.5307 55.8328 48.8795 54.5078 55.9638C53.9515 58.9613 52.8453 59.9663 51.7765 60.0645C49.4515 60.2782 47.689 58.5295 45.439 57.0551C41.9203 54.747 39.9328 53.3107 36.514 51.0588C32.564 48.4563 35.1265 47.0257 37.3765 44.6882C37.964 44.0763 48.2015 34.767 48.3953 33.9226C48.4203 33.817 48.4453 33.4232 48.2078 33.2157C47.9765 33.0076 47.6328 33.0788 47.3828 33.1351C47.0265 33.2151 41.4078 36.9326 30.5078 44.287C28.914 45.3832 27.4703 45.9176 26.1703 45.8895C24.7453 45.8588 21.9953 45.082 19.9515 44.4182C17.4515 43.6038 15.4578 43.1732 15.6328 41.7901C15.7203 41.0701 16.714 40.3332 18.6078 39.5801Z" fill="white"/>
</svg>
