<svg width="27" height="27" viewBox="0 0 27 27" fill="none" xmlns="http://www.w3.org/2000/svg">
<g clip-path="url(#clip0_1204_526)">
<path d="M7.73408 4.38069V2.47113C7.73408 2.13047 7.51624 1.82841 7.19335 1.72104L2.15997 0.0432469C1.8772 -0.0533096 1.56359 0.0231551 1.35039 0.234039L0.231842 1.35259C0.0201669 1.56426 -0.0539775 1.87787 0.0402587 2.16216L1.71811 7.19639C1.82626 7.51928 2.12906 7.73712 2.46894 7.73712H4.3785L7.27973 10.6378L10.6355 7.28155L7.73408 4.38069Z" fill="#4285F4"/>
<path d="M26.3039 20.7109L18.8032 13.2103C18.3278 12.7359 17.9054 12.6242 17.3309 12.5096C16.39 12.3212 15.6593 11.5904 15.4692 10.6503C15.3583 10.0788 15.2427 9.65166 14.7694 9.17716L13.4299 7.83771C13.1333 7.54108 12.608 7.54108 12.3114 7.83771L7.8372 12.3126C7.52823 12.6216 7.52823 13.1222 7.8372 13.4312L9.17665 14.7706C9.64424 15.2393 10.0694 15.356 10.6475 15.4713C11.5899 15.6597 12.3207 16.3905 12.5091 17.3314C12.6222 17.9086 12.7394 18.3352 13.209 18.8037L20.7112 26.3044C21.625 27.2213 23.1316 27.2395 24.0668 26.3044L24.626 25.745L16.2263 17.3461C15.9173 17.0371 15.9173 16.5365 16.2263 16.2276C16.5352 15.9186 17.0358 15.9186 17.3448 16.2276L25.7443 24.6263L26.3039 24.0666C27.2293 23.1411 27.2293 21.6364 26.3039 20.7109Z" fill="#4285F4"/>
<path d="M11.781 19.7077C11.232 18.9895 11.0947 18.5281 10.9597 17.845C10.8979 17.533 10.6538 17.292 10.3387 17.2286C9.44811 17.05 8.75851 16.7935 8.06141 16.0954L7.2531 15.2871L6.52262 16.0174C4.74595 15.7014 2.91207 16.2708 1.63131 17.553C-0.533643 19.7164 -0.533063 23.22 1.63131 25.3829C3.79078 27.5423 7.30446 27.5411 9.46267 25.3829C10.745 24.1006 11.312 22.2621 10.9968 20.4916L11.781 19.7077ZM7.22404 23.145C6.28859 24.0851 4.78266 24.06 3.8684 23.1458C2.94297 22.2203 2.94297 20.7156 3.8684 19.7901C4.79932 18.8592 6.30304 18.8651 7.22404 19.7909C8.14942 20.7148 8.14942 22.2196 7.22404 23.145Z" fill="#4285F4"/>
<path d="M26.4617 3.16198C26.227 2.67308 25.5736 2.55664 25.1886 2.94493L22.8156 5.32704H21.675V4.19937L24.0701 1.82401C24.4597 1.43615 24.34 0.784245 23.8523 0.551739C21.7372 -0.45944 19.2051 -0.0237498 17.5488 1.634C16.2665 2.91629 15.6995 4.75482 16.0147 6.52532L15.3398 7.2L16.1476 8.00768C16.8428 8.70388 17.1102 9.40646 17.2816 10.2934C17.3434 10.6024 17.5875 10.8442 17.9026 10.9076C18.5839 11.0443 19.0437 11.1806 19.7606 11.7282C20.0538 11.4352 20.3141 11.1751 20.4889 11.0003C22.2532 11.3124 24.0979 10.7477 25.3802 9.46462C27.0364 7.80687 27.472 5.27473 26.4617 3.16198Z" fill="#4285F4"/>
</g>
<defs>
<clipPath id="clip0_1204_526">
<rect width="27" height="27" fill="white"/>
</clipPath>
</defs>
</svg>
