<svg width="81" height="80" viewBox="0 0 81 80" fill="none" xmlns="http://www.w3.org/2000/svg">
<path d="M61.75 0H19.25C8.89466 0 0.5 8.39466 0.5 18.75V61.25C0.5 71.6053 8.89466 80 19.25 80H61.75C72.1053 80 80.5 71.6053 80.5 61.25V18.75C80.5 8.39466 72.1053 0 61.75 0Z" fill="#011635"/>
<mask id="mask0_1275_637" style="mask-type:luminance" maskUnits="userSpaceOnUse" x="9" y="15" width="63" height="50">
<path d="M9.25 15.9375H71.75V64.3531H9.25V15.9375Z" fill="white"/>
</mask>
<g mask="url(#mask0_1275_637)">
<path d="M62.1586 20.2499C58.1065 18.3901 53.8303 17.0637 49.437 16.3039C49.3971 16.2966 49.3559 16.3021 49.3192 16.3195C49.2825 16.3368 49.2523 16.3653 49.2326 16.4008C48.6833 17.3777 48.0745 18.6527 47.6486 19.6546C42.8445 18.9352 38.0654 18.9352 33.3601 19.6546C32.9339 18.6302 32.3032 17.3777 31.7514 16.4008C31.731 16.3659 31.7006 16.3379 31.6641 16.3206C31.6275 16.3033 31.5866 16.2975 31.5467 16.3039C27.153 17.062 22.8766 18.3884 18.8251 20.2499C18.7906 20.2649 18.7614 20.2899 18.7414 20.3217C10.6389 32.4267 8.4195 44.2343 9.50825 55.8955C9.51488 55.9531 9.5441 56.0057 9.5895 56.0417C14.9351 59.9677 20.1136 62.3511 25.1957 63.9308C25.2353 63.9425 25.2775 63.9419 25.3166 63.9291C25.3558 63.9162 25.3902 63.8918 25.4151 63.8589C26.6173 62.2171 27.6889 60.4861 28.6079 58.6658C28.6206 58.6409 28.6278 58.6135 28.6291 58.5856C28.6305 58.5577 28.6258 58.5298 28.6156 58.5038C28.6054 58.4778 28.5897 58.4542 28.5697 58.4347C28.5497 58.4152 28.5258 58.4001 28.4995 58.3905C26.7995 57.7455 25.1811 56.9596 23.6242 56.0667C23.5958 56.05 23.572 56.0266 23.5548 55.9985C23.5377 55.9705 23.5277 55.9386 23.5257 55.9057C23.5238 55.8729 23.53 55.8401 23.5437 55.8102C23.5574 55.7803 23.5783 55.7542 23.6045 55.7342C23.933 55.4888 24.2557 55.2358 24.5726 54.9755C24.6004 54.9526 24.634 54.9379 24.6697 54.9331C24.7053 54.9282 24.7416 54.9334 24.7745 54.948C35.0032 59.618 46.0767 59.618 56.1845 54.948C56.2175 54.9325 56.2542 54.9266 56.2904 54.931C56.3267 54.9354 56.3609 54.95 56.3892 54.973C56.7064 55.2347 57.0301 55.4885 57.3598 55.7342C57.3861 55.754 57.4072 55.7799 57.4211 55.8097C57.435 55.8395 57.4414 55.8722 57.4398 55.9051C57.4381 55.9379 57.4283 55.9698 57.4114 55.998C57.3944 56.0262 57.3708 56.0498 57.3426 56.0667C55.7849 56.9763 54.1531 57.7528 52.4648 58.388C52.4387 58.3981 52.4149 58.4136 52.3951 58.4334C52.3753 58.4533 52.36 58.4771 52.35 58.5033C52.34 58.5295 52.3356 58.5575 52.3372 58.5855C52.3387 58.6135 52.3461 58.6409 52.3589 58.6658C53.2938 60.4717 54.36 62.2066 55.5489 63.8564C55.5732 63.8901 55.6074 63.9153 55.6467 63.9286C55.686 63.9419 55.7285 63.9427 55.7682 63.9308C60.8751 62.3511 66.0536 59.9677 71.3995 56.0417C71.4223 56.0248 71.4414 56.0033 71.4554 55.9785C71.4694 55.9537 71.478 55.9263 71.4808 55.898C72.7839 42.4164 69.2979 30.7055 62.2398 20.3242C62.2226 20.2904 62.1938 20.264 62.1586 20.2499ZM30.1354 48.7952C27.0557 48.7952 24.5182 45.968 24.5182 42.4958C24.5182 39.0236 27.0067 36.1964 30.1354 36.1964C33.2886 36.1964 35.8014 39.0486 35.752 42.4958C35.752 45.968 33.2639 48.7952 30.1354 48.7952ZM50.9029 48.7952C47.8232 48.7952 45.2861 45.968 45.2861 42.4958C45.2861 39.0236 47.7742 36.1964 50.9029 36.1964C54.0561 36.1964 56.5689 39.0486 56.5198 42.4958C56.5198 45.968 54.0561 48.7952 50.9029 48.7952Z" fill="white"/>
</g>
</svg>
