<svg width="24" height="24" viewBox="0 0 24 24" fill="none" xmlns="http://www.w3.org/2000/svg">
<g clip-path="url(#clip0_398_360)">
<path d="M21.713 2.22656H2.897C1.85598 2.22656 1.01257 3.07349 1.01257 4.11452V6.30595H23.5974V4.11452C23.5974 3.07349 22.754 2.22656 21.713 2.22656Z" fill="#1B76C6"/>
<path d="M1.01257 19.3399C1.01257 20.3809 1.85598 21.2243 2.897 21.2243H21.7095C22.7505 21.2243 23.5939 20.3809 23.5939 19.3399V17.1484H1.01257V19.3399Z" fill="#1B76C6"/>
<path d="M23.5974 14.4255H18.4523C16.9631 14.4255 15.7527 13.2151 15.7527 11.7259C15.7527 10.2367 16.9631 9.02633 18.4523 9.02633H23.5974V7.00781H1.01257V16.437H23.5974V14.4255Z" fill="#1B76C6"/>
<path d="M16.4586 11.7243C16.4586 12.8253 17.3514 13.7181 18.4524 13.7181H23.5976V9.73047H18.4524C17.3514 9.73047 16.4586 10.6233 16.4586 11.7243ZM19.6311 11.7243C19.6311 12.2254 19.2253 12.6312 18.7242 12.6312C18.2231 12.6312 17.8172 12.2254 17.8172 11.7243C17.8172 11.2232 18.2231 10.8174 18.7242 10.8174C19.2217 10.8174 19.6311 11.2232 19.6311 11.7243Z" fill="#1B76C6"/>
</g>
<defs>
<clipPath id="clip0_398_360">
<rect width="23.2906" height="23.2906" fill="white" transform="translate(0.657227 0.078125)"/>
</clipPath>
</defs>
</svg>
