<svg width="62" height="61" viewBox="0 0 62 61" fill="none" xmlns="http://www.w3.org/2000/svg">
<path d="M61.2634 30.4071C61.2634 13.7381 47.7538 0.228516 31.0848 0.228516C14.4159 0.228516 0.90625 13.7381 0.90625 30.4071C0.90625 47.076 14.4159 60.5857 31.0848 60.5857C31.2617 60.5857 31.4385 60.5857 31.6153 60.5739V37.0912H25.1316V29.5347H31.6153V23.9706C31.6153 17.5223 35.5527 14.0093 41.3055 14.0093C44.064 14.0093 46.4335 14.2097 47.1172 14.304V21.047H43.1562C40.0323 21.047 39.4193 22.5324 39.4193 24.7132V29.5229H46.905L45.9265 37.0794H39.4193V59.4186C52.033 55.7995 61.2634 44.1879 61.2634 30.4071Z" fill="white"/>
</svg>
