<svg width="69" height="68" viewBox="0 0 69 68" fill="none" xmlns="http://www.w3.org/2000/svg">
<path d="M68.2599 34.085C68.2599 15.4256 53.1371 0.302734 34.4776 0.302734C15.8182 0.302734 0.695312 15.4256 0.695312 34.085C0.695312 52.7445 15.8182 67.8673 34.4776 67.8673C34.6756 67.8673 34.8735 67.8673 35.0714 67.8541V41.5673H27.8135V33.1085H35.0714V26.8799C35.0714 19.6616 39.479 15.7291 45.9187 15.7291C49.0067 15.7291 51.6591 15.9534 52.4245 16.059V23.6072H47.9905C44.4935 23.6072 43.8073 25.27 43.8073 27.7113V33.0953H52.1869L51.0917 41.5541H43.8073V66.5609C57.9273 62.5097 68.2599 49.5114 68.2599 34.085Z" fill="#011635"/>
</svg>
