<svg width="48" height="49" viewBox="0 0 48 49" fill="none" xmlns="http://www.w3.org/2000/svg">
<rect y="0.5" width="48" height="48" rx="4" fill="#011635"/>
<path fill-rule="evenodd" clip-rule="evenodd" d="M24 16.5C21.9289 16.5 20.25 18.1789 20.25 20.25C20.25 22.3211 21.9289 24 24 24C26.0711 24 27.75 22.3211 27.75 20.25C27.75 18.1789 26.0711 16.5 24 16.5ZM21.75 20.25C21.75 19.0074 22.7574 18 24 18C25.2426 18 26.25 19.0074 26.25 20.25C26.25 21.4926 25.2426 22.5 24 22.5C22.7574 22.5 21.75 21.4926 21.75 20.25Z" fill="white"/>
<path fill-rule="evenodd" clip-rule="evenodd" d="M21 25.5C18.9289 25.5 17.25 27.1789 17.25 29.25C17.25 31.3211 18.9289 33 21 33H27C29.0711 33 30.75 31.3211 30.75 29.25C30.75 27.1789 29.0711 25.5 27 25.5H21ZM18.75 29.25C18.75 28.0074 19.7574 27 21 27H27C28.2426 27 29.25 28.0074 29.25 29.25C29.25 30.4926 28.2426 31.5 27 31.5H21C19.7574 31.5 18.75 30.4926 18.75 29.25Z" fill="white"/>
<path d="M19.7521 22.8887C19.5944 22.6353 19.2985 22.5 19 22.5C17.7574 22.5 16.75 21.4926 16.75 20.25C16.75 19.0074 17.7574 18 19 18C19.2985 18 19.5944 17.8647 19.7521 17.6113C19.7591 17.6001 19.7661 17.589 19.7732 17.5778C20.0358 17.1633 19.9027 16.5764 19.415 16.5227C19.2787 16.5077 19.1403 16.5 19 16.5C16.9289 16.5 15.25 18.1789 15.25 20.25C15.25 22.3211 16.9289 24 19 24C19.1403 24 19.2787 23.9923 19.415 23.9773C19.9027 23.9236 20.0358 23.3367 19.7732 22.9222C19.7661 22.911 19.7591 22.8999 19.7521 22.8887Z" fill="white"/>
<path d="M16.7083 30.8169C16.5948 30.6275 16.3944 30.5 16.1736 30.5H16C14.7574 30.5 13.75 29.4926 13.75 28.25C13.75 27.0074 14.7574 26 16 26H16.1736C16.3944 26 16.5948 25.8725 16.7083 25.6831C16.9854 25.2208 16.6847 24.5 16.1457 24.5H16C13.9289 24.5 12.25 26.1789 12.25 28.25C12.25 30.3211 13.9289 32 16 32H16.1457C16.6847 32 16.9854 31.2792 16.7083 30.8169Z" fill="white"/>
<path d="M28.2268 22.9222C27.9642 23.3367 28.0973 23.9236 28.585 23.9773C28.7213 23.9923 28.8597 24 29 24C31.0711 24 32.75 22.3211 32.75 20.25C32.75 18.1789 31.0711 16.5 29 16.5C28.8597 16.5 28.7213 16.5077 28.585 16.5227C28.0973 16.5764 27.9642 17.1633 28.2268 17.5778C28.2339 17.589 28.2409 17.6001 28.2479 17.6113C28.4056 17.8647 28.7015 18 29 18C30.2426 18 31.25 19.0074 31.25 20.25C31.25 21.4926 30.2426 22.5 29 22.5C28.7015 22.5 28.4056 22.6353 28.2479 22.8887C28.2409 22.8999 28.2339 22.911 28.2268 22.9222Z" fill="white"/>
<path d="M31.2917 30.8169C31.0146 31.2792 31.3153 32 31.8543 32H32C34.0711 32 35.75 30.3211 35.75 28.25C35.75 26.1789 34.0711 24.5 32 24.5H31.8543C31.3153 24.5 31.0146 25.2208 31.2917 25.6831C31.4052 25.8725 31.6056 26 31.8264 26H32C33.2426 26 34.25 27.0074 34.25 28.25C34.25 29.4926 33.2426 30.5 32 30.5H31.8264C31.6056 30.5 31.4052 30.6275 31.2917 30.8169Z" fill="white"/>
</svg>
