<svg width="60" height="61" viewBox="0 0 60 61" fill="none" xmlns="http://www.w3.org/2000/svg">
<path fill-rule="evenodd" clip-rule="evenodd" d="M14.9641 0.228516C6.84419 0.228516 0.261719 6.98421 0.261719 15.3178V45.4964C0.261719 53.83 6.84419 60.5857 14.9641 60.5857H44.3689C52.4889 60.5857 59.0712 53.83 59.0712 45.4964V15.3178C59.0712 6.98421 52.4889 0.228516 44.3689 0.228516H14.9641ZM29.6665 19.4331C23.7611 19.4331 18.9738 24.3463 18.9738 30.4071C18.9738 36.4678 23.7611 41.3811 29.6665 41.3811C35.5718 41.3811 40.3591 36.4678 40.3591 30.4071C40.3591 24.3463 35.5718 19.4331 29.6665 19.4331ZM13.6275 30.4071C13.6275 21.3159 20.8084 13.946 29.6665 13.946C38.5245 13.946 45.7054 21.3159 45.7054 30.4071C45.7054 39.4982 38.5245 46.8681 29.6665 46.8681C20.8084 46.8681 13.6275 39.4982 13.6275 30.4071ZM45.7054 8.45903C42.7527 8.45903 40.3591 10.9157 40.3591 13.946C40.3591 16.9764 42.7527 19.4331 45.7054 19.4331C48.6582 19.4331 51.0518 16.9764 51.0518 13.946C51.0518 10.9157 48.6582 8.45903 45.7054 8.45903Z" fill="white"/>
</svg>
