<svg width="16" height="19" viewBox="0 0 16 19" fill="none" xmlns="http://www.w3.org/2000/svg">
<path fill-rule="evenodd" clip-rule="evenodd" d="M7.99992 5.20898C6.27403 5.20898 4.87492 6.60809 4.87492 8.33398C4.87492 10.0599 6.27403 11.459 7.99992 11.459C9.72581 11.459 11.1249 10.0599 11.1249 8.33398C11.1249 6.60809 9.72581 5.20898 7.99992 5.20898ZM6.12492 8.33398C6.12492 7.29845 6.96438 6.45898 7.99992 6.45898C9.03545 6.45898 9.87492 7.29845 9.87492 8.33398C9.87492 9.36952 9.03545 10.209 7.99992 10.209C6.96438 10.209 6.12492 9.36952 6.12492 8.33398Z" fill="#757575"/>
<path fill-rule="evenodd" clip-rule="evenodd" d="M7.99992 0.208984C3.93047 0.208984 0.708252 3.74463 0.708252 8.0079C0.708252 9.37517 1.38751 10.9852 2.24212 12.4961C3.11056 14.0314 4.21898 15.5642 5.19078 16.8034L5.2232 16.8447C5.69753 17.4497 6.10161 17.965 6.49345 18.321C6.92095 18.7093 7.39237 18.9635 7.99992 18.9635C8.60747 18.9635 9.07889 18.7093 9.50638 18.321C9.89823 17.965 10.3023 17.4497 10.7767 16.8447L10.8091 16.8034C11.7809 15.5642 12.8893 14.0314 13.7577 12.4961C14.6123 10.9852 15.2916 9.37517 15.2916 8.0079C15.2916 3.74463 12.0694 0.208984 7.99992 0.208984ZM1.95825 8.0079C1.95825 4.34708 4.70557 1.45898 7.99992 1.45898C11.2943 1.45898 14.0416 4.34708 14.0416 8.0079C14.0416 9.02998 13.5086 10.3976 12.6697 11.8807C11.8447 13.3393 10.7784 14.8168 9.82543 16.032C9.30963 16.6898 8.97002 17.1195 8.6659 17.3957C8.38854 17.6477 8.2034 17.7135 7.99992 17.7135C7.79644 17.7135 7.61129 17.6477 7.33393 17.3957C7.02981 17.1195 6.6902 16.6898 6.1744 16.032C5.2214 14.8168 4.15515 13.3393 3.33013 11.8807C2.49127 10.3976 1.95825 9.02998 1.95825 8.0079Z" fill="#757575"/>
</svg>
