<svg width="35" height="36" viewBox="0 0 35 36" fill="none" xmlns="http://www.w3.org/2000/svg">
<g clip-path="url(#clip0_1313_258)">
<path d="M17.498 0.228516C11.3481 0.228516 6.21875 5.18252 6.21875 11.5078C6.21875 13.9142 6.94186 16.06 8.32962 18.0707L16.6349 31.0303C17.0378 31.6603 17.9591 31.6591 18.3612 31.0303L26.7025 18.0266C28.0604 16.107 28.7773 13.853 28.7773 11.5078C28.7773 5.28841 23.7175 0.228516 17.498 0.228516ZM17.498 16.6348C14.6712 16.6348 12.3711 14.3347 12.3711 11.5078C12.3711 8.68095 14.6712 6.38086 17.498 6.38086C20.3249 6.38086 22.625 8.68095 22.625 11.5078C22.625 14.3347 20.3249 16.6348 17.498 16.6348Z" fill="white"/>
<path d="M25.5141 23.791L20.3509 31.8634C19.0144 33.9471 15.9742 33.9403 14.6442 31.8654L9.47252 23.7931C4.92225 24.8452 2.11719 26.7724 2.11719 29.0755C2.11719 33.072 10.042 35.2279 17.498 35.2279C24.9541 35.2279 32.8789 33.072 32.8789 29.0755C32.8789 26.7708 30.07 24.8425 25.5141 23.791Z" fill="white"/>
</g>
<defs>
<clipPath id="clip0_1313_258">
<rect width="35" height="35" fill="white" transform="translate(0 0.228516)"/>
</clipPath>
</defs>
</svg>
