<svg width="18" height="18" viewBox="0 0 18 18" fill="none" xmlns="http://www.w3.org/2000/svg">
<path fill-rule="evenodd" clip-rule="evenodd" d="M13.553 0.978107C12.6012 0.874988 11.4016 0.874993 9.87112 0.875H8.12904C6.59859 0.874993 5.39893 0.874988 4.44714 0.978107C3.47586 1.08334 2.68888 1.30194 2.01694 1.79013C1.61016 2.08568 1.25242 2.44341 0.956875 2.8502C0.82214 3.03564 0.706757 3.23151 0.608307 3.43997C0.306818 4.07837 0.17234 4.81864 0.106802 5.7014C0.0417443 6.57769 0.041746 7.65186 0.0417482 8.9763V9.03771C0.0417414 10.5682 0.0417359 11.7678 0.144855 12.7196C0.250087 13.6909 0.468685 14.4779 0.956875 15.1498C1.25242 15.5566 1.61016 15.9143 2.01694 16.2099C2.68888 16.6981 3.47586 16.9167 4.44714 17.0219C5.39891 17.125 6.59855 17.125 8.12896 17.125H9.87114C11.4015 17.125 12.6013 17.125 13.553 17.0219C14.5243 16.9167 15.3113 16.6981 15.9832 16.2099C16.39 15.9143 16.7477 15.5566 17.0433 15.1498C17.5315 14.4779 17.7501 13.6909 17.8553 12.7196C17.9584 11.7678 17.9584 10.5682 17.9584 9.03779V8.97575C17.9584 7.64227 17.9584 6.56238 17.8919 5.68254C17.825 4.79588 17.6875 4.05316 17.3789 3.41288C17.2833 3.21445 17.1721 3.02753 17.0433 2.8502C16.7477 2.44341 16.39 2.08568 15.9832 1.79013C15.3113 1.30194 14.5243 1.08334 13.553 0.978107ZM2.75168 2.8014C3.17501 2.49383 3.71686 2.31454 4.58179 2.22083C5.45841 2.12586 6.59044 2.125 8.16675 2.125H9.83341C11.4097 2.125 12.5418 2.12586 13.4184 2.22083C14.2833 2.31454 14.8252 2.49383 15.2485 2.8014C15.549 3.01974 15.8133 3.28401 16.0317 3.58449L14.4507 5.1655C13.0493 6.56689 12.0418 7.57253 11.1728 8.23556C10.3182 8.88758 9.67143 9.14911 9.00008 9.14911C8.32874 9.14911 7.68196 8.88758 6.82737 8.23556C5.95837 7.57252 4.95085 6.56688 3.54947 5.1655L1.96846 3.5845C2.18685 3.28401 2.45115 3.01974 2.75168 2.8014ZM16.5312 4.85281C16.5815 5.11967 16.6189 5.42409 16.6455 5.7767C16.708 6.60411 16.7084 7.63735 16.7084 9C16.7084 10.5763 16.7076 11.7083 16.6126 12.585C16.5189 13.4499 16.3396 13.9917 16.032 14.4151C15.8136 14.7157 15.5492 14.9802 15.2485 15.1986C14.8252 15.5062 14.2833 15.6855 13.4184 15.7792C12.5418 15.8741 11.4097 15.875 9.83341 15.875H8.16675C6.59044 15.875 5.45841 15.8741 4.58179 15.7792C3.71686 15.6855 3.17501 15.5062 2.75168 15.1986C2.45101 14.9802 2.1866 14.7157 1.96815 14.4151C1.66057 13.9917 1.48129 13.4499 1.38758 12.585C1.29261 11.7083 1.29175 10.5763 1.29175 9C1.29175 7.64704 1.29214 6.6187 1.35337 5.79395C1.38009 5.43404 1.41784 5.12404 1.46901 4.85281L2.69939 6.08319C4.05962 7.44344 5.1256 8.50943 6.06915 9.22933C7.03492 9.96619 7.94554 10.3991 9.00008 10.3991C10.0546 10.3991 10.9652 9.96619 11.931 9.22933C12.8746 8.50943 13.9405 7.44345 15.3008 6.08321L16.5312 4.85281Z" fill="#757575"/>
</svg>
