<svg width="48" height="49" viewBox="0 0 48 49" fill="none" xmlns="http://www.w3.org/2000/svg">
<rect y="0.5" width="48" height="48" rx="4" fill="#011635"/>
<path d="M26.3196 28.1819C26.3196 28.1819 34.7904 22.0691 33.8508 15.0731C33.841 14.9544 33.794 14.8418 33.7164 14.7515C33.6295 14.6715 33.5184 14.6229 33.4008 14.6135C26.5644 13.6523 20.592 22.3199 20.592 22.3199C15.4104 21.6995 15.7872 22.7327 13.4232 28.4111C12.9708 29.4935 13.704 29.8667 14.508 29.5619L17.0856 28.5887L20.1936 31.7663L19.242 34.4051C18.9444 35.2283 19.308 35.9783 20.3676 35.5163C25.9164 33.0971 26.9268 33.4835 26.3196 28.1819ZM27.5304 21.0827C27.1851 20.7259 26.9921 20.2489 26.9921 19.7525C26.9921 19.256 27.1851 18.779 27.5304 18.4223C27.6992 18.2485 27.9013 18.1103 28.1245 18.0159C28.3477 17.9216 28.5876 17.873 28.83 17.873C29.0723 17.873 29.3122 17.9216 29.5354 18.0159C29.7586 18.1103 29.9607 18.2485 30.1296 18.4223C30.4748 18.779 30.6678 19.256 30.6678 19.7525C30.6678 20.2489 30.4748 20.7259 30.1296 21.0827C29.9607 21.2565 29.7586 21.3947 29.5354 21.489C29.3122 21.5834 29.0723 21.632 28.83 21.632C28.5876 21.632 28.3477 21.5834 28.1245 21.489C27.9013 21.3947 27.6992 21.2565 27.5304 21.0827Z" fill="white"/>
</svg>
