<svg width="27" height="27" viewBox="0 0 27 27" fill="none" xmlns="http://www.w3.org/2000/svg">
<g clip-path="url(#clip0_1204_542)">
<path d="M20.25 24.75C20.25 25.9875 19.2375 27 18 27H2.25C1.0125 27 0 25.9875 0 24.75C0 24.1313 0.2475 23.5688 0.66375 23.1637C1.06875 22.7475 1.63125 22.5 2.25 22.5V6.75C1.0125 6.75 0 5.7375 0 4.5C0 3.2625 1.0125 2.25 2.25 2.25H11.4075L10.6312 3.6225C10.08 4.60125 9.99 5.7375 10.305 6.75H4.5V22.5H9.0675L7.93125 18.9C7.84125 18.6412 7.86375 18.3713 7.965 18.1238L9.97875 13.3425L8.62875 11.3063C8.505 11.1263 8.4375 10.9125 8.4375 10.6875V9C8.4375 8.38125 8.94375 7.875 9.5625 7.875C9.97875 7.875 10.3387 8.1 10.53 8.4375C9.9675 9.57375 9.9675 10.9575 10.6312 12.1275L11.4975 13.6687C11.6325 13.9162 11.8012 14.1525 11.9925 14.355L10.1925 18.6187L11.4187 22.5H15.75V16.515C16.3013 17.2238 17.0888 17.7188 18 17.8988V22.5C19.2375 22.5 20.25 23.5125 20.25 24.75Z" fill="#4285F4"/>
<path d="M25.4453 8.19C25.4566 8.08875 25.4566 7.9875 25.4566 7.875C25.4566 7.7625 25.4566 7.66125 25.4453 7.56L26.3116 6.91875C26.9978 6.4125 27.2003 5.4675 26.7841 4.725L25.9066 3.1725C25.4903 2.41875 24.5341 2.10375 23.7578 2.475L22.7903 2.925C22.6441 2.82375 22.4866 2.73375 22.3291 2.64375L22.2166 1.51875C22.1378 0.6525 21.4178 0 20.5516 0H18.8191C17.9528 0 17.2328 0.6525 17.1541 1.51875L17.0416 2.64375C16.8841 2.73375 16.7266 2.82375 16.5803 2.925L15.6128 2.475C14.8366 2.10375 13.8803 2.41875 13.4641 3.1725L12.5866 4.725C12.1703 5.4675 12.3728 6.4125 13.0591 6.91875L13.9253 7.56C13.9141 7.66125 13.9141 7.7625 13.9141 7.875C13.9141 7.9875 13.9141 8.08875 13.9253 8.19L13.0591 8.83125C12.3728 9.3375 12.1703 10.2825 12.5866 11.025L13.4641 12.5775C13.8803 13.3313 14.8253 13.6463 15.6128 13.275L16.5803 12.825C16.7266 12.9263 16.8841 13.0163 17.0416 13.1063L17.1541 14.2313C17.2328 15.0975 17.9528 15.75 18.8191 15.75H20.5516C21.4178 15.75 22.1378 15.0975 22.2166 14.2313L22.3291 13.1063C22.4866 13.0163 22.6441 12.9263 22.7903 12.825L23.7578 13.275C24.5341 13.6463 25.4903 13.3313 25.9066 12.5775L26.7841 11.025C27.2003 10.2825 26.9978 9.3375 26.3116 8.83125L25.4453 8.19ZM19.6853 10.6875C18.1384 10.6875 16.8728 9.42188 16.8728 7.875C16.8728 6.32813 18.1384 5.0625 19.6853 5.0625C21.2322 5.0625 22.4978 6.32813 22.4978 7.875C22.4978 9.42188 21.2322 10.6875 19.6853 10.6875Z" fill="#4285F4"/>
</g>
<defs>
<clipPath id="clip0_1204_542">
<rect width="27" height="27" fill="white"/>
</clipPath>
</defs>
</svg>
