<svg width="21" height="16" viewBox="0 0 21 16" fill="none" xmlns="http://www.w3.org/2000/svg">
<path d="M0.799164 15.1572V10.7447C0.799164 9.49181 1.0443 8.21165 1.53457 6.90425C2.02485 5.59686 2.67174 4.36436 3.47524 3.20677C4.27875 2.04918 5.15034 1.08225 6.09003 0.305987L9.93051 2.5735C9.16786 3.77195 8.5414 5.02487 8.05113 6.33227C7.57447 7.63966 7.33615 9.09687 7.33615 10.7039V15.1572H0.799164ZM11.1153 15.1572V10.7447C11.1153 9.49181 11.3605 8.21165 11.8508 6.90425C12.341 5.59686 12.9879 4.36436 13.7914 3.20677C14.5949 2.04918 15.4665 1.08225 16.4062 0.305987L20.2467 2.5735C19.484 3.77195 18.8576 5.02487 18.3673 6.33227C17.8907 7.63966 17.6523 9.09687 17.6523 10.7039V15.1572H11.1153Z" fill="#212121"/>
</svg>
