<svg width="106" height="74" viewBox="0 0 106 74" fill="none" xmlns="http://www.w3.org/2000/svg">
<path d="M102.851 11.8446C101.653 7.3352 98.1242 3.78067 93.6409 2.57412C85.5206 0.38672 52.9482 0.386719 52.9482 0.386719C52.9482 0.386719 20.3759 0.38672 12.2512 2.57412C7.77227 3.78067 4.24378 7.33086 3.04591 11.8446C0.867188 20.0213 0.867188 37.0778 0.867188 37.0778C0.867188 37.0778 0.867188 54.1344 3.04591 62.3111C4.24378 66.8204 7.77227 70.375 12.2556 71.5815C20.3759 73.7689 52.9482 73.7689 52.9482 73.7689C52.9482 73.7689 85.5206 73.7689 93.6452 71.5815C98.1242 70.375 101.653 66.8248 102.855 62.3111C105.029 54.1344 105.029 37.0778 105.029 37.0778C105.029 37.0778 105.029 20.0213 102.851 11.8446ZM42.2977 52.5676V21.588L69.5187 37.0778L42.2977 52.5676Z" fill="#011635"/>
</svg>
