<svg width="93" height="66" viewBox="0 0 93 66" fill="none" xmlns="http://www.w3.org/2000/svg">
<path d="M90.9852 10.3776C89.9173 6.38329 86.7718 3.23479 82.7751 2.16606C75.5361 0.228516 46.4989 0.228516 46.4989 0.228516C46.4989 0.228516 17.4617 0.228516 10.2188 2.16606C6.22597 3.23479 3.08043 6.37945 2.01257 10.3776C0.0703125 17.6203 0.0703125 32.7285 0.0703125 32.7285C0.0703125 32.7285 0.0703125 47.8367 2.01257 55.0795C3.08043 59.0737 6.22597 62.2222 10.2227 63.291C17.4617 65.2285 46.4989 65.2285 46.4989 65.2285C46.4989 65.2285 75.5361 65.2285 82.7789 63.291C86.7718 62.2222 89.9173 59.0776 90.9891 55.0795C92.9275 47.8367 92.9275 32.7285 92.9275 32.7285C92.9275 32.7285 92.9274 17.6203 90.9852 10.3776ZM37.0042 46.4489V19.0081L61.2709 32.7285L37.0042 46.4489Z" fill="white"/>
</svg>
